<?xml version="1.0" encoding="UTF-8"?>
<!-- Generator: visioncortex VTracer 0.6.4 -->
<svg version="1.1" xmlns="http://www.w3.org/2000/svg" width="832" height="1152">
<path d="M0 0 C274.56 0 549.12 0 832 0 C832 380.16 832 760.32 832 1152 C557.44 1152 282.88 1152 0 1152 C0 771.8399999999999 0 391.67999999999995 0 0 Z M638.8125 53.6875 C638.1397906494141 53.77581085205078 637.4670812988281 53.864121704101564 636.7739868164063 53.955108642578125 C616.1583908197186 56.690291214446525 589.3503304107506 60.790336924525675 575.46875 77.84765625 C569.9601398959662 85.92011414181545 568.06514657651 94.3313104830825 569 104 C572.4043595564418 116.32977891167266 581.1065593464216 125.22783353715218 590 134 C588.4164573304195 138.75062800874167 584.4515030674197 140.73907079345756 580.5 143.625 C579.645029296875 144.25309570312498 578.79005859375 144.88119140625 577.9091796875 145.5283203125 C571.8886556174295 149.85856056533606 565.7576645284238 153.48808761549313 559.138916015625 156.809326171875 C553.0123228573701 159.9016332763046 547.435841259618 163.5681506984846 541.78125 167.44140625 C537.0982413194963 170.64368512883595 532.2781739055501 173.61971582881307 527.452880859375 176.601318359375 C519.4755142376456 181.43344025703087 519.4755142376456 181.43344025703087 512.5625 187.625 C508.8096358113152 191.0146837833282 505.99230486152703 191.47603557363192 501 191.875 C493.70861292708116 192.51281517138852 489.03437275744193 194.81368082620705 482.859375 198.6162109375 C478.64620901076484 201.17922024761805 474.81655391542483 202.8569003548304 470 204.125 C463.1990602324086 206.00431792834308 458.6973963312974 208.93249759566268 454.76953125 214.85546875 C452.03053063224485 220.2809987093081 450.9435434641049 226.24442207732346 449.637451171875 232.13720703125 C446.9258307001845 244.13186426896286 442.6059428456807 255.6199835139337 438.0859375 267.03515625 C436.6994523583151 270.8205599281972 435.7425511037914 274.66531458841337 434.7578125 278.5703125 C434.0249896330889 280.91987859906544 433.1265523660718 282.6824350883486 431.8125 284.75 C429.7167428932804 287.8446002186345 429.7167428932804 287.8446002186345 430.125 291.1875 C429.9898758690574 295.30878599374876 429.1721766490292 296.9281941372517 427.25 300.5 C424.0226262411253 306.52748290664545 422.3602066112077 312.3490208195733 420.76171875 318.9453125 C420.00000000000006 321.9999999999999 420.00000000000006 321.9999999999999 419 324 C414.24424135972004 322.11183255683153 413.1312692364041 319.2850787003433 411.16015625 314.74609375 C409.4140654301216 309.1080429208302 408.7189417719788 303.38253742854454 408.075927734375 297.526123046875 C407.45587510733577 292.12380818901505 406.1862444769665 288.0202650952565 404 283 C403.33261619153103 279.46739479614496 403.10992455559574 275.89654151313647 402.828125 272.31640625 C402.4345525285088 268.1309143897184 401.6688332963128 264.8688529116589 399.85595703125 261.0185546875 C397.928588664383 256.4733517048257 396.77463254012235 251.61966385204713 395.4375 246.875 C394.8343631354277 244.7467336116365 394.2289734011743 242.6191041008408 393.62109375 240.4921875 C393.35739990234373 239.5574560546875 393.0937060546875 238.622724609375 392.822021484375 237.65966796875 C392.02994289638826 234.96696999503425 392.02994289638826 234.96696999503425 390.91357421875 232.2998046875 C389.939559101025 229.8478478705654 389.7708372534431 227.99793039784132 389.6875 225.375 C389.09155542361503 218.3804926034814 386.6526371182781 211.58025376192057 381.56640625 206.6328125 C378.6320024729824 203.62248046695603 376.9852418350257 200.42419460229118 375.1875 196.6875 C371.03342100718623 188.53264731053582 365.9781153247854 181.58181714652216 357.41015625 177.6640625 C353.10763073570837 176.47860166137832 348.711920822279 176.45435794264472 344.26953125 176.37109375 C339.1450607276952 175.78946328450542 336.8754177916009 174.01415278234595 333.53515625 170.14453125 C332.70230762689977 169.04031057355283 331.87835012070815 167.92933871343803 331.0625 166.8125 C330.629375 166.23604736328124 330.19625 165.6595947265625 329.75 165.065673828125 C327.8389790144339 162.51681393524962 325.9606238758066 159.94572697810565 324.08984375 157.3671875 C323.30287109375 156.2882421875 323.30287109375 156.2882421875 322.5 155.1875 C322.05656250000004 154.5623046875 321.61312499999997 153.937109375 321.15625 153.29296875 C320.7746875 152.86628906250002 320.393125 152.439609375 320 152 C319.34000000000003 152 318.68 152 318 152 C318 151.34 318 150.68 318 150 C309.05744023444936 141.332444277345 309.05744023444936 141.332444277345 298 137 C298.580078125 136.3077734375 298.580078125 136.3077734375 299.171875 135.6015625 C308.3282498411492 124.13342965440222 309.7318362608264 112.22858576337437 309 98 C307.90630981679396 90.35510561938987 303.65146850718463 85.08327777755747 298 80 C294.07531476023644 77.10772712504853 291.07150401883735 76.05269691895921 286.1875 75.8125 C281.3235647458265 76.68551401997986 277.60699026548707 79.71094270625152 273.7109375 82.6015625 C271 84 271 84 267.97265625 84.01171875 C264.27852208085574 82.75445101043579 262.6676915045929 81.07136677088643 260.0625 78.1875 C255.22429297806704 73.11752258180678 251.57301662144997 70.0306778715721 244.75 68.0625 C236.86187701176834 67.93103128352948 230.0023239076766 70.92555484969573 222.875 74.0625 C217.5968728238663 76.37706501847865 212.73736539522451 78.32979448480563 207 79 C206.1169921875 79.105703125 205.233984375 79.21140625 204.32421875 79.3203125 C196.81866648962742 79.79784417908317 192.64826682863685 77.81039129559298 187 73 C185.3670841744602 71.52957661386952 183.7423873107088 70.04998691252591 182.125 68.5625 C171.67243889894706 58.99711615289448 161.41143075237136 53.541146018911675 147 53.9375 C133.92621711214235 55.332612145348946 125.33217866206256 62.34193026105981 117 72 C116.05676826351552 73.37802117672796 115.13401956440407 74.77076506290942 114.25 76.1875 C112 79 112 79 108.8125 79.6875 C105.48083536522549 79.08670801668 103.1251241433046 78.271526467329 100.0625 76.9375 C95.0531668792056 74.80150211389495 92.2758075869707 74.59311797680782 87 76 C78.15303268443033 80.51375883447432 72.59361371122954 88.98789061480718 69 98 C66.18223297596039 106.71746673062256 65.80082990019035 115.04205072183365 69.55078125 123.515625 C74.27268771230031 131.6103217925148 81.8377212994365 136.77685428805944 90 141 C91.26263671875 141.6612890625 91.26263671875 141.6612890625 92.55078125 142.3359375 C104.86368599749628 148.35557982099817 118.14357424113776 151.0217165923579 131.77734375 151.31640625 C132.99436729431153 151.34757789611817 132.99436729431153 151.34757789611817 134.23597717285156 151.37937927246094 C136.80307339067082 151.44425643215087 139.37026336960994 151.5034692187287 141.9375 151.5625 C143.6881603602679 151.60574417764747 145.4388115759126 151.64936025543497 147.189453125 151.693359375 C151.4595417115371 151.79987350078278 155.72972368365677 151.90131114406012 160 152 C159.93296875 153.286484375 159.8659375 154.57296875 159.796875 155.8984375 C159.3519676517281 177.4541985237725 168.89172149576336 195.06101916275773 181.262451171875 212.20703125 C186.65050164621078 219.6938254448179 190.87958622381987 227.6621242836739 194.9609375 235.919677734375 C195.61755437538116 237.23430000766515 196.2924588293982 238.5400845262386 196.9921875 239.832275390625 C200.10987562479096 245.68182220842874 202.1370198894667 251.8647433813799 204.23171997070313 258.1400146484375 C211.193421962657 278.9455262327217 219.24826885649225 298.04369885949956 230.9765625 316.6328125 C233.2814923037371 320.4684292776475 235.3286713452264 324.3977103703802 237.375 328.375 C240.60718196414894 334.6200323215105 244.16043918623478 340.472013825818 248.130615234375 346.271728515625 C252.89928945604706 353.25034314257954 257.23698891843515 360.4766762850185 261.6044921875 367.71044921875 C262.97984343967653 369.9669299820305 264.3797706393476 372.205994808804 265.7890625 374.44140625 C271.2212635920417 383.10106366349885 276.12373837968136 391.84361598799086 280.476806640625 401.10107421875 C284.533438305398 409.5803494278245 289.2606083923846 417.4969483775142 298.1796875 421.38671875 C299.399140625 421.8159765625 300.61859375 422.245234375 301.875 422.6875 C303.2922939994706 423.1987851835748 304.7089200059063 423.71192450081406 306.125 424.2265625 C307.28322265625 424.64470214843755 307.28322265625 424.64470214843755 308.46484375 425.0712890625 C313.2921009806768 426.8396718153404 318.08318829682423 428.70065166338406 322.875 430.5625 C323.8248779296875 430.92625732421874 324.774755859375 431.2900146484375 325.75341796875 431.664794921875 C334.8700335604272 435.2092626013653 343.36307242239917 438.9853594968101 350.9375 445.25 C351.5274072265625 445.72381103515625 352.117314453125 446.1976220703125 352.72509765625 446.685791015625 C355.53233092356425 448.948162039661 358.3000772337155 451.2525554240339 361.05859375 453.57421875 C368.36538678043036 459.7054389766441 374.74856150805226 463.68714037701307 384 466 C380.8877753796722 469.81247515990157 377.82199278086335 473.25695445049763 374.0625 476.4375 C369.929279970082 479.97578684379346 366.43188933369254 483.7845080277476 363 488 C362.2768359375 488.8623828125 361.553671875 489.724765625 360.80859375 490.61328125 C354.506184875992 498.4939583361115 350.68397086914746 506.665694389427 347 516 C335.5660289792992 516.9212469073098 324.1558140034139 517.2397161119507 312.689453125 517.445556640625 C307.59877140691367 517.5378811382773 302.5083749609561 517.6436916238902 297.41796875 517.75 C296.4246957397461 517.7706652832031 295.43142272949217 517.7913305664063 294.4080505371094 517.8126220703125 C286.4361442932433 517.9823377941615 278.4682076755821 518.2021893460517 270.5 518.5 C268.98345825195315 518.553173828125 268.98345825195315 518.553173828125 267.436279296875 518.607421875 C263.9045070030887 518.7488540490551 260.4991585241809 518.9151756756294 257.01171875 519.5078125 C251.546144738651 520.4010191477691 245.96589789469823 520.3245620223682 240.435546875 520.4296875 C239.069462890625 520.47609375 239.069462890625 520.47609375 237.67578125 520.5234375 C236.84989501953126 520.5432568359374 236.0240087890625 520.5630761718751 235.173095703125 520.58349609375 C232.56459875381407 521.0834506826192 231.6601442240415 521.97910076467 230 524 C232.51726296175895 526.5172629617589 239.11624206081618 525.189289695146 242.5159912109375 525.189697265625 C243.21196411132811 525.1889721679688 243.90793701171876 525.1882470703125 244.625 525.1875 C245.33192993164062 525.1882250976562 246.03885986328126 525.1889501953125 246.7672119140625 525.189697265625 C259.2613270747755 525.188304930955 271.6821193577822 524.5982502955496 284.1509704589844 523.8573303222656 C304.7594469286219 522.6553314867846 325.3647943985464 522.8085104769656 346 523 C346 523.99 346 524.98 346 526 C344.7109375 525.979375 343.421875 525.95875 342.09375 525.9375 C337.1713472828066 525.9375 332.38322646341146 526.4267010647843 327.5 527 C318.29905825236995 528.0109591102278 309.24661988099194 528.2155947640646 300 528 C300 527.6700000000001 300 527.3399999999999 300 527 C280.1588042133062 526.7748448145112 280.1588042133062 526.7748448145112 260.34716796875 527.65087890625 C255.07906321151592 528.0032159516086 249.83586107661125 527.9967868082246 244.55859375 527.92578125 C243.79915969848633 527.9175131225586 243.03972564697267 527.9092449951172 242.2572784423828 527.9007263183594 C238.403941226213 527.8581228772409 234.55281475885783 527.7952918658773 230.700439453125 527.69921875 C229.2638462932654 527.6800929081942 227.82724134801458 527.661827879655 226.390625 527.64453125 C225.112197265625 527.6172192382812 223.83376953125 527.5899072265624 222.5166015625 527.561767578125 C218.38126964992534 528.0771050387659 216.22033353152756 529.4112805576207 213 532 C213 532.3299999999999 213 532.6600000000001 213 533 C227.1099134427824 533.023532229304 241.21982377065538 533.041010869243 255.3297529220581 533.051812171936 C261.8836606308846 533.0569998691993 268.43755502727197 533.0640215087856 274.991455078125 533.075439453125 C281.33276306934823 533.0864161358667 287.6740583682596 533.0923076922467 294.0153751373291 533.094877243042 C296.417892576956 533.0967051531217 298.82040943264826 533.1002736079138 301.22292137145996 533.1057300567627 C315.848511487379 533.1375835912705 330.39819690709663 532.8571430378679 345 532 C345 532.99 345 533.98 345 535 C326.19 535.495 326.19 535.495 307 536 C308.32 536.3299999999999 309.64 536.6600000000001 311 537 C311 537.6600000000001 311 538.3199999999999 311 539 C310.3130102539062 538.8788281249999 309.62602050781254 538.7576562500001 308.918212890625 538.6328125 C293.5671670712177 535.9862998349054 278.8421893387791 534.4709637627151 263.27880859375 534.89697265625 C258.8933753265917 535.0116078952299 254.50758285616314 535.067358131895 250.12107849121094 535.1246490478516 C245.73101387601488 535.1830247776659 241.34114499522076 535.2517064962677 236.95126342773438 535.3224182128906 C234.7381026614422 535.3574040012325 232.52490461235834 535.390107553794 230.31167602539063 535.4205017089844 C227.1788759451612 535.4658346878998 224.0465764343793 535.5241776676235 220.9140625 535.5859375 C219.95893264770507 535.5975138854981 219.00380279541017 535.6090902709961 218.0197296142578 535.6210174560547 C217.13875106811523 535.6408619689942 216.25777252197267 535.6607064819336 215.35009765625 535.68115234375 C214.5794497680664 535.6944760131836 213.80880187988282 535.7077996826172 213.01480102539063 535.7215270996094 C210.686792297502 535.8942347676174 210.686792297502 535.8942347676174 208 538 C208 538.99 208 539.98 208 541 C237.37 541 266.74 541 297 541 C291.95715359854216 541.7204066287798 287.4170930685191 542.1643472678597 282.37158203125 542.28125 C281.6437451171875 542.299296875 280.915908203125 542.31734375 280.166015625 542.3359375 C278.5974163430271 542.3743054314084 277.0287700157882 542.4107881967107 275.46008682250977 542.445556640625 C272.9701804935167 542.5008354745773 270.48044584720924 542.5612955077004 267.9906921386719 542.623046875 C262.70223304337105 542.7532860035851 257.41363269618745 542.8770420515644 252.125 543 C245.99895149158195 543.142634690146 239.87298912116268 543.2879905718419 233.7471580505371 543.439697265625 C231.30734150666706 543.4988001928731 228.86745041260272 543.5532228101639 226.42752075195313 543.607421875 C219.23915877520537 543.7779244893218 212.13376994334425 544.0226317759939 205 545 C204.67 546.3199999999999 204.34 547.64 204 549 C211.25711468654077 549.0695570097752 218.51224575384884 549.0573014670355 225.76953125 549.012451171875 C227.31770003044085 549.003808811126 228.8658792961962 548.9969350955332 230.4140625 548.991455078125 C271.5787400861099 549.1957795398581 271.5787400861099 549.1957795398581 312.05810546875 542.4453125 C314.7042995515217 541.8384910256506 317.26028918116987 541.7970614503479 319.97265625 541.71875 C321.11927734375 541.6813671875 322.2658984375 541.643984375 323.447265625 541.60546875 C325.86132480594813 541.5350423881571 328.2753873220074 541.4647302555798 330.689453125 541.39453125 C331.83478515625 541.3571484375 332.9801171875 541.319765625 334.16015625 541.28125 C335.20824462890624 541.25095703125 336.2563330078125 541.2206640625 337.336181640625 541.189453125 C340.10346782465274 541.1033606234776 340.10346782465274 541.1033606234776 343 540 C343 541.65 343 543.3 343 545 C342.1364892578125 544.9842895507812 341.272978515625 544.9685791015625 340.38330078125 544.952392578125 C319.7129638411104 544.6280929716896 299.2562658854913 544.7791779227526 278.921875 549.0703125 C271.71565141161625 550.4114529541159 264.4610992827869 550.3627679826677 257.1541442871094 550.4633178710938 C252.840488658045 550.5258821433849 248.52773685512042 550.6251264446005 244.21484375 550.7265625 C243.35242568969727 550.7467947387695 242.49000762939454 550.767026977539 241.60145568847656 550.7878723144531 C233.45240271670855 550.9916262835166 225.3227347988048 551.3633630933131 217.1875 551.875 C215.9733642578125 551.94138671875 214.759228515625 552.0077734375 213.50830078125 552.076171875 C212.4059912109375 552.15158203125 211.303681640625 552.2269921875 210.16796875 552.3046875 C209.21172607421875 552.3664013671876 208.2554833984375 552.428115234375 207.270263671875 552.49169921875 C204.62867536976785 552.8086701414047 204.62867536976785 552.8086701414047 203 556 C203 556.99 203 557.98 203 559 C207.24966250055732 560.1407411627205 210.6121466331195 559.7989611436121 214.9375 559.125 C226.97415111042653 557.2651474889221 239.09085794446463 556.8851279190437 251.25 556.5625 C261.39128699806344 556.2483297636056 271.3395101733065 555.5925940760515 281.3984375 554.322265625 C301.3312504821306 551.8531108637001 320.9114732347089 550.5224015216738 341 551 C341 551.3299999999999 341 551.6600000000001 341 552 C340.07292236328124 552.0396386718751 339.1458447265625 552.0792773437499 338.190673828125 552.1201171875 C319.8252814631296 552.9350062033888 301.60518583479075 554.1183798642865 283.34552001953125 556.2684020996094 C271.1343102718804 557.6933196041779 258.96840818257505 558.5261116973543 246.6875 559.0625 C235.6154439053515 559.5502845540764 224.63168908850184 560.1399076304892 213.625 561.5 C212.63846435546876 561.6186743164062 211.6519287109375 561.7373486328124 210.635498046875 561.859619140625 C207.28664228372034 562.2782900241357 207.28664228372034 562.2782900241357 204 563 C203.505 563.99 203.505 563.99 203 565 C203.99 566.485 203.99 566.485 205 568 C205.7669921875 567.9437646484375 206.533984375 567.887529296875 207.32421875 567.82958984375 C214.52696951962147 567.3077877772516 221.73099173337383 566.8180769541653 228.9375 566.3515625 C264.6714134789155 564.066944978928 264.6714134789155 564.066944978928 300.234375 559.98046875 C308.6150837868764 558.8436533625057 316.99654916623774 558.3325800319221 325.4375 557.875 C326.95901402451426 557.7882790597619 328.4804987098377 557.7010417812917 330.001953125 557.61328125 C333.66765168542923 557.4029331856943 337.3336909809247 557.199461577002 341 557 C341 558.3199999999999 341 559.64 341 561 C339.8741650390625 560.9685791015625 339.8741650390625 560.9685791015625 338.7255859375 560.9365234375 C318.98870283595886 560.4667392359268 299.93976699229523 561.8319100086593 280.36265563964844 564.2530059814453 C272.4270844134479 565.2201479618537 264.4700880773647 565.8412567258683 256.49658203125 566.40380859375 C255.5708740234375 566.4703564453125 254.645166015625 566.536904296875 253.69140625 566.60546875 C252.89935791015625 566.6585620117188 252.1073095703125 566.7116552734375 251.291259765625 566.766357421875 C248.81619950307294 567.0187423628726 246.43090040954075 567.4763842131457 244 568 C244 568.33 244 568.66 244 569 C263.89177069156506 573.1178289912422 286.6071882527008 569.527732251154 306.419921875 566.47265625 C310.1212277453246 565.9839950276222 313.7336536585612 565.7919685659339 317.46484375 565.68359375 C318.1430165100098 565.662812652588 318.82118927001954 565.6420315551758 319.51991271972656 565.6206207275391 C321.6590183098222 565.5559069147463 323.79823296407875 565.4966091038458 325.9375 565.4375 C327.3990992398013 565.3942401621741 328.8606879693143 565.3506236644205 330.322265625 565.306640625 C333.8813983965345 565.2003074850873 337.4406499694351 565.0988266993577 341 565 C340.67 565.66 340.34 566.32 340 567 C339.3810888671875 567.009345703125 338.762177734375 567.01869140625 338.12451171875 567.0283203125 C321.4052720506204 567.3373187626086 304.97441944781224 568.6715281023786 288.37646484375 570.6279296875 C276.68610505158404 571.9826950915881 265.0714128132562 572.938856622267 253.375 571.0625 C252.248359375 570.8884765625 251.12171875 570.714453125 249.9609375 570.53515625 C247 570 247 570 245.15380859375 569.474365234375 C236.44007133862408 567.5552095455619 226.54399445482878 569.2316935187044 217.75 570 C216.6117578125 570.095390625 215.473515625 570.19078125 214.30078125 570.2890625 C211.5334464807729 570.5216116402712 208.76657834800469 570.7586465292692 206 571 C206.66 572.32 207.32 573.64 208 575 C208.73412109375 574.9947631835937 209.4682421875 574.9895263671875 210.224609375 574.984130859375 C244.5072526346862 574.7721451973905 244.5072526346862 574.7721451973905 253.7265625 576.515625 C269.03727483641444 578.7811719328346 284.6916653826265 576.8601672503979 299.8525390625 574.502197265625 C313.211408776443 572.5033795176195 326.5051285642534 572.1735674782733 340 572 C340 572.99 340 573.98 340 575 C339.09797851562496 574.9764343261718 339.09797851562496 574.9764343261718 338.177734375 574.952392578125 C323.4556291828752 574.6227309255803 309.34126399872554 575.5282403254323 294.77294921875 577.61083984375 C280.6442787694624 579.5936801938261 267.33807294342955 580.474892923711 253.125 579 C245.6730345143175 578.2280219043134 238.30555969039725 577.8071044574687 230.8125 577.8125 C229.9767041015625 577.81185546875 229.140908203125 577.8112109375 228.27978515625 577.810546875 C222.47567710488087 577.8614905722392 216.7645928000217 578.3362354388208 211 579 C212.51126508712272 581.611861081293 212.51126508712272 581.611861081293 215 584 C217.68479418812888 584.5080851087592 219.75852172461512 584.6994213451412 222.44140625 584.671875 C223.16432357788085 584.6846246337891 223.88724090576173 584.6973742675781 224.63206481933594 584.7105102539063 C226.94260658812706 584.7467559968233 229.25169978519787 584.7495175278808 231.5625 584.75 C233.84138138416301 584.7717612015464 236.1200919600768 584.8004865419299 238.3988800048828 584.8303527832031 C239.8806088730405 584.8496364380659 241.36237400377618 584.866316669895 242.8441619873047 584.8803405761719 C248.60277727624222 584.9482833053343 254.27298947449052 585.4011923964403 260 586 C272.5119256215868 586.8964532175139 284.3392821742416 585.1356711302648 296.6420593261719 583.1429138183594 C310.8979646282809 580.862292210834 324.56192542354574 580.5613075865351 339 581 C338.61727679172293 587.7041686029656 338.2256129405987 594.4077747361297 337.828125 601.111083984375 C337.69429570168165 603.3850560881326 337.56241180614546 605.6591436453676 337.4326171875 607.933349609375 C336.212480436316 629.2716642541188 336.212480436316 629.2716642541188 335.0234375 637.27734375 C332.25283680271764 656.4275129544328 331.8593924036797 675.9672784541126 331.03515625 695.28125 C330.99514873504637 696.2187106323242 330.9551412200928 697.1561712646485 330.9139213562012 698.1220397949219 C330.5420828535293 706.8744473803225 330.1776338039035 715.6271505254339 329.825439453125 724.38037109375 C328.2919713459324 762.3268356618748 328.2919713459324 762.3268356618748 326.55859375 779.40625 C326.4487062072754 780.5012683105468 326.3388186645508 781.5962866210938 326.22560119628906 782.7244873046875 C324.9604707918952 794.0707677003411 322.3811984690609 805.1418941077594 319.3125 816.125 C319.05903808593746 817.0425708007813 318.80557617187503 817.9601416015626 318.54443359375 818.905517578125 C311.5608638132293 844.0811400112618 304.4708511040408 869.2618009112712 296.4375 894.125 C281.47155794952573 935.0592647136368 281.47155794952573 935.0592647136368 284 977 C285.21661781136345 978.8303419298553 286.53345932568914 980.4973837959996 287.91552734375 982.203125 C291.3556565952753 987.9031140344949 288.517876392198 998.6709694707577 287.75 1005 C287.6194018554687 1006.0956225585937 287.48880371093753 1007.1912451171875 287.354248046875 1008.320068359375 C286.36129506696955 1016.1858926325784 284.8582218107614 1023.7360198160528 282.76953125 1031.37890625 C281.90946005958835 1035.4260432729013 281.8678786203768 1038.8769017738286 282 1043 C284.83674169848496 1039.6904680184343 285.987481390018 1036.527085851138 287.25 1032.375 C287.4532690429687 1031.7085546875 287.65653808593754 1031.042109375 287.865966796875 1030.35546875 C291.1747186241781 1019.3140820690032 294.05732318123194 1008.1431403072206 297 997 C293.23159050195886 1032.5333146398898 293.23159050195886 1032.5333146398898 290.2197265625 1047.51220703125 C289.43734548674706 1051.409157439754 288.77315814670504 1054.9978615882962 289 1059 C292.0095597176801 1056.484779675333 292.9179853277394 1053.9747079838935 294.12109375 1050.28515625 C294.4975805664062 1049.1324121093749 294.87406738281254 1047.9796679687502 295.261962890625 1046.7919921875 C295.64989013671874 1045.561259765625 296.0378173828125 1044.33052734375 296.4375 1043.0625 C296.83638427734377 1041.8124316406252 297.23526855468754 1040.5623632812499 297.646240234375 1039.2744140625 C300.8600776175375 1028.962170819502 303.2454527288094 1018.6499792405135 305 1008 C305.16299061618486 1017.8319885090483 304.7627324758738 1027.3755159674197 303.6875 1037.16015625 C303.55432373046875 1038.43426864624 303.4211474609375 1039.7083810424806 303.283935546875 1041.0211029052734 C302.9342419763184 1044.3581593044705 302.5783217199892 1047.6944119232494 302.2186279296875 1051.0303955078125 C301.710544443877 1055.7529336363932 301.21220765751946 1060.4764963709654 300.716064453125 1065.2003021240234 C300.4526118327269 1067.7037494928632 300.1856790863764 1070.2068337677053 299.914794921875 1072.709487915039 C299.7346081542969 1074.4080216217042 299.7346081542969 1074.4080216217042 299.55078125 1076.140869140625 C299.4441918945313 1077.1304310607911 299.33760253906246 1078.119992980957 299.227783203125 1079.1395416259766 C298.9916242917868 1082.105180559269 298.9611332406777 1085.0262622075088 299 1088 C301.9361420752924 1085.0638579247077 302.06393870957817 1081.5116181962192 302.8125 1077.5625 C304.08742365525643 1071.14824679143 305.53835441316335 1064.8555326416204 307.3125 1058.5625 C311.54754647784887 1043.298686652753 314.0823330254683 1027.557096425537 317 1012 C317.64522173076887 1033.746362037024 315.7089375071937 1055.3398231025276 314 1077 C314.99 1077 315.98 1077 317 1077 C317.0949877929687 1076.3485400390625 317.18997558593753 1075.697080078125 317.287841796875 1075.02587890625 C319.1508929111109 1062.3482859829096 321.14844738790555 1049.7105190399152 323.5625 1037.125 C323.75996826171877 1036.0881103515626 323.9574365234375 1035.051220703125 324.160888671875 1033.98291015625 C325.538823790687 1026.9247509350648 327.1938257150697 1019.9603789516825 329 1013 C328.4712033502912 1027.5145563161454 327.30528600617606 1041.955702888514 326.016357421875 1056.4189453125 C325.382911071423 1063.6259249792886 324.80961477674884 1070.7570838980541 325 1078 C325.99 1077.67 326.98 1077.34 328 1077 C329.0165897418636 1074.3204339752035 329.8595014008153 1071.7501245970711 330.625 1069 C332.9076086956521 1061.092391304348 332.9076086956521 1061.092391304348 334 1060 C334.66 1060.6599999999999 335.32 1061.3200000000002 336 1062 C336.82254824953685 1057.842378415088 337.6401466932621 1053.683819650088 338.45361328125 1049.5244140625 C338.7296732753449 1048.1162841737332 339.0069712156764 1046.7083962851448 339.28564453125 1045.30078125 C341.1465785783708 1035.8953384125666 342.747159848897 1026.5092621305032 344 1017 C344.1167517013988 1025.27251824718 343.7861815217207 1033.4234050339714 343.125 1041.66796875 C343.0362158203125 1042.8282307434083 342.947431640625 1043.9884927368164 342.85595703125 1045.1839141845703 C342.5749398523228 1048.8521236530194 342.28805785393473 1052.519837207074 342 1056.1875 C341.7123496596792 1059.865901122072 341.4261090429962 1063.544387064554 341.14404296875 1067.2232208251953 C340.96933375944224 1069.5007325350748 340.7914567882405 1071.7780042738318 340.60986328125 1074.0549774169922 C340.1482956538736 1080.058984336556 339.9117867500968 1085.978264266652 340 1092 C342.7272559788256 1089.6874845680504 343.43626885368934 1088.1324828898737 343.87548828125 1084.60791015625 C343.9921585083008 1083.723341369629 344.10882873535155 1082.8387725830078 344.2290344238281 1081.9273986816406 C344.34165618896486 1080.9742477416992 344.45427795410154 1080.0210968017577 344.5703125 1079.0390625 C344.69687225341795 1078.056343688965 344.82343200683596 1077.0736248779297 344.9538269042969 1076.0611267089844 C345.35626236085153 1072.9171406342552 345.7410826983434 1069.7712959840392 346.125 1066.625 C346.51984753221154 1063.486419007049 346.91824157711415 1060.3483069815866 347.3175964355469 1057.2102966308594 C347.5648089074112 1055.257463909954 347.8086948662117 1053.3042064931903 348.0488586425781 1051.3504943847656 C348.15922454833986 1050.4596212768556 348.26959045410155 1049.5687481689451 348.38330078125 1048.65087890625 C348.4786209106445 1047.8716104125976 348.5739410400391 1047.0923419189453 348.6721496582031 1046.2894592285156 C349.0222539657144 1043.8445951073388 349.51563151355623 1041.421842432219 350 1039 C350 1048.9 350 1058.8 350 1069 C350.66 1068.67 351.32 1068.3400000000001 352 1068 C352.61140825075034 1065.0499551901296 353.0932885191584 1062.167651381742 353.5 1059.1875 C353.62673095703127 1058.298369140625 353.7534619140625 1057.40923828125 353.884033203125 1056.4931640625 C354.7722320863327 1050.0918320226624 355.52647781326885 1043.6785622773918 356.1875 1037.25 C356.31318359374995 1036.037999267578 356.31318359374995 1036.037999267578 356.44140625 1034.801513671875 C356.91970936588547 1029.843757560127 357.0739132665963 1024.980617041414 357 1020 C357.77161790157743 1023.4179976211069 358.12257265761144 1026.564381504376 358.113525390625 1030.065673828125 C358.11344985961915 1031.0463130187989 358.1133743286133 1032.0269522094727 358.11329650878906 1033.0373077392578 C358.1055545806885 1034.6063208770752 358.1055545806885 1034.6063208770752 358.09765625 1036.20703125 C358.09553382873537 1037.8278284454345 358.09553382873537 1037.8278284454345 358.09336853027344 1039.4813690185547 C358.0877807994444 1042.9251077626177 358.0752304950981 1046.368780976958 358.0625 1049.8125 C358.0574834166109 1052.150389684579 358.05292078567595 1054.488280390457 358.048828125 1056.826171875 C358.0378153809589 1062.550803526281 358.0210894090371 1068.2753970802755 358 1074 C358.66 1074 359.32 1074 360 1074 C363.20969394847555 1058.0710401386825 365.69801058135795 1042.0812851730518 368 1026 C367.9955587768555 1026.6211669921875 367.9911175537109 1027.242333984375 367.9865417480469 1027.88232421875 C367.94215280053874 1034.371558534934 367.91206908404126 1040.8607494138673 367.89013671875 1047.35009765625 C367.8801048983401 1049.7690608034704 367.8664762920128 1052.188011903797 367.84912109375 1054.60693359375 C367.8247489319827 1058.0921527264763 367.8134884186732 1061.5772109254276 367.8046875 1065.0625 C367.7943649291992 1066.1367724609377 367.78404235839844 1067.2110449218749 367.7734069824219 1068.31787109375 C367.77252986452146 1074.2429779346585 368.27670280923707 1079.323256312781 370 1085 C370.99 1085 371.98 1085 373 1085 C376.0707447824431 1060.6964674073226 378.8958517340664 1036.4075931527696 381 1012 C381.0228355407715 1012.6565306091309 381.045671081543 1013.3130612182617 381.06919860839844 1013.9894866943359 C381.3085660842342 1020.8521081120527 381.5527068954614 1027.7145481720545 381.799560546875 1034.576904296875 C381.8909429148183 1037.1344784283574 381.9811276298803 1039.6920956548452 382.070068359375 1042.249755859375 C382.1984718815576 1045.9361564208082 382.3312494828582 1049.6223780857124 382.46484375 1053.30859375 C382.52272315979 1055.0106925201417 382.52272315979 1055.0106925201417 382.58177185058594 1056.7471771240234 C382.7834911725713 1062.2004608835136 383.1153839834902 1067.576595734527 383.77610778808594 1072.9932708740234 C384.11887599757995 1076.0654766625594 384.21945656835396 1079.1341163918473 384.31640625 1082.22265625 C384.35830078125 1083.50205078125 384.4001953125 1084.7814453125 384.443359375 1086.099609375 C384.48267578125 1087.40736328125 384.5219921875 1088.7151171875 384.5625 1090.0625 C384.6057962755528 1091.4186301589812 384.64941365841514 1092.7747501059628 384.693359375 1094.130859375 C384.7987211044932 1097.4204867069552 384.90084951663925 1100.7101805858533 385 1104 C387.9152398808494 1099.627140178726 388.1642410356209 1095.142517660821 388.9375 1090 C389.1100732421875 1088.8680419921875 389.282646484375 1087.736083984375 389.46044921875 1086.56982421875 C391.41043283032536 1073.121972392391 392.4423947927588 1059.598196087068 393.5091857910156 1046.057601928711 C393.992218185841 1039.9676931382833 394.5636755048931 1033.889430479459 395.1875 1027.8125 C395.2714501953125 1026.9934619140627 395.355400390625 1026.1744238281249 395.44189453125 1025.33056640625 C395.62567666887225 1023.5534764923518 395.81239910387995 1021.776690839725 396 1020 C395.99476318359376 1020.871728515625 395.9895263671875 1021.74345703125 395.984130859375 1022.6416015625 C395.8943083760303 1040.1012731351702 395.9686571373857 1057.545579933524 396.4375 1075 C396.4571481323242 1075.7862072753906 396.47679626464844 1076.5724145507813 396.4970397949219 1077.3824462890625 C396.5538776173963 1079.6093200288271 396.61741805727655 1081.8358863389353 396.68359375 1084.0625 C396.7202514648437 1085.3322265625 396.7569091796875 1086.601953125 396.794677734375 1087.91015625 C396.87173730790084 1091.036261835724 396.87173730790084 1091.036261835724 398 1094 C398.66 1094 399.32 1094 400 1094 C400.4634651010311 1089.979742104583 400.91968847466796 1085.9586888078602 401.375 1081.9375 C401.501328125 1080.84244140625 401.62765625 1079.7473828125 401.7578125 1078.619140625 C403.0558910454752 1067.0986935339074 404.0273936332215 1055.5517460694746 405 1044 C405.03536361694336 1044.5754959106446 405.0707272338867 1045.1509918212892 405.10716247558594 1045.7439270019531 C405.47663041027647 1051.7465136120052 405.85046404250335 1057.748817132947 406.226806640625 1063.7509765625 C406.3665937450709 1065.9895139708915 406.50527647952094 1068.2281206322034 406.642822265625 1070.466796875 C406.8409901121454 1073.6889917512738 407.0431591907442 1076.9109147497509 407.24609375 1080.1328125 C407.3065538024902 1081.1299124145507 407.3670138549805 1082.1270123291015 407.42930603027344 1083.1543273925781 C407.7274977890792 1087.8296277445684 408.10086993494906 1092.3923825345694 409 1097 C409.66 1097 410.32 1097 411 1097 C412.3003818667997 1091.1724117153842 412.36789127792395 1085.3880512945268 412.5625 1079.4375 C412.60495849609373 1078.1907348632813 412.6474169921875 1076.9439697265625 412.691162109375 1075.659423828125 C413.1846043469234 1059.443343212677 413.0904987293882 1043.2215491707893 413 1027 C413.33 1027 413.66 1027 414 1027 C414.0478916931152 1027.6815867614746 414.0957833862305 1028.3631735229492 414.14512634277344 1029.065414428711 C414.64592299901085 1036.1875633967961 415.1492637063812 1043.3095293900299 415.654052734375 1050.431396484375 C415.84207594795635 1053.085960779346 416.02905650527254 1055.7405926312322 416.215576171875 1058.395263671875 C416.4844655102652 1062.2206626593725 416.75568619519015 1066.0458904687143 417.02734375 1069.87109375 C417.1096775817871 1071.0495738220216 417.1920114135742 1072.2280538940431 417.27684020996094 1073.4422454833984 C417.72002817047354 1079.6489688870881 418.2624416633681 1085.8211552577106 419 1092 C419.66 1092 420.32 1092 421 1092 C421 1085.07 421 1078.14 421 1071 C421.66 1071 422.32 1071 423 1071 C423.33 1073.97 423.66 1076.94 424 1080 C424.33 1080 424.66 1080 425 1080 C426.22956844510173 1068.6125366581252 426.3323266730848 1057.1910235721336 426.5625 1045.75 C426.6057825487128 1043.7330656513695 426.6493996116004 1041.7161384521473 426.693359375 1039.69921875 C426.7994302126336 1034.7995530841133 426.9009720691107 1029.899812863424 427 1025 C427.4842912204734 1030.2912118857741 427.96275798150555 1035.5829245898756 428.4375 1040.875 C428.50758270263674 1041.6539865112304 428.5776654052734 1042.4329730224608 428.6498718261719 1043.2355651855469 C429.43554560251016 1052.0067087094276 430.1776010773638 1060.7628465697305 430.5625 1069.5625 C430.9233936523654 1077.4892712930264 432.3084722395439 1084.5021726673008 435 1092 C435.33 1092 435.66 1092 436 1092 C437.4032190952361 1080.2869964136098 437.1113535306008 1068.5246226395175 437.0625 1056.75 C437.0574753270515 1054.636719809592 437.0529141308271 1052.5234384637768 437.048828125 1050.41015625 C437.03789832746963 1045.2734085824436 437.0206869034671 1040.13671726091 437 1035 C437.05422119140627 1035.7651391601562 437.1084423828125 1036.5302783203124 437.164306640625 1037.318603515625 C438.4241109341666 1054.281549311187 440.4410063248472 1070.950689926107 443.5 1087.6875 C443.64929962158203 1088.508078918457 443.79859924316406 1089.328657836914 443.9524230957031 1090.1741027832031 C445.7243380298035 1099.844568155955 447.68378191759876 1109.4434793312648 450 1119 C450.66 1118.67 451.32 1118.34 452 1118 C451.9394140625 1117.3915625 451.878828125 1116.783125 451.81640625 1116.15625 C448.3725815567283 1080.1285455165423 450.0009703511875 1044.0675987700638 452 1008 C452.0198193359375 1009.0662158203126 452.039638671875 1010.132431640625 452.06005859375 1011.23095703125 C452.5169798722692 1040.1766549800886 452.5169798722692 1040.1766549800886 455 1069 C455.116337890625 1069.946171875 455.23267578125 1070.89234375 455.3525390625 1071.8671875 C455.7196501921637 1074.788740302128 456.1043218438388 1077.7071862390794 456.5 1080.625 C456.6184326171875 1081.5094580078126 456.736865234375 1082.393916015625 456.85888671875 1083.30517578125 C456.9776416015625 1084.1248583984375 457.096396484375 1084.944541015625 457.21875 1085.7890625 C457.32123046875 1086.5078759765624 457.4237109375 1087.226689453125 457.529296875 1087.96728515625 C458.04657650155286 1090.2011389792165 458.90180203626204 1091.994717578534 460 1094 C460.66 1093.67 461.32 1093.34 462 1093 C461.735444038588 1086.35115740993 461.46865497504393 1079.7024068946944 461.200439453125 1073.0537109375 C461.10977711085644 1070.800149990916 461.0195935199187 1068.5465697234813 460.929931640625 1066.29296875 C460.3949153981067 1052.8547954183678 459.80196515090654 1039.4250909111379 459 1026 C459.66 1026 460.32 1026 461 1026 C460.95552734375 1027.68029296875 460.95552734375 1027.68029296875 460.91015625 1029.39453125 C460.91152504621994 1036.3877111377672 461.61067404944396 1043.3429089529368 462.226806640625 1050.302978515625 C462.4378827188715 1052.6918314197196 462.6422310534565 1055.0811917577403 462.845703125 1057.470703125 C462.978771075358 1059.005242688499 463.11222134973013 1060.539749157013 463.24609375 1062.07421875 C463.3065538024902 1062.780599822998 463.3670138549805 1063.486980895996 463.42930603027344 1064.2147674560547 C463.7838203345696 1068.1816197415396 464.29136673040034 1072.0809333084512 465 1076 C465.66 1076 466.32 1076 467 1076 C467.33 1076.66 467.66 1077.32 468 1078 C468 1058.53 468 1039.06 468 1019 C468.53625 1023.475625 469.0725 1027.95125 469.625 1032.5625 C472.3580604562286 1054.2436190841877 475.45696596120655 1076.4068495489576 483 1097 C483.8999159194133 1094.03361048786 484.0006224748161 1091.8685394848283 483.5625 1088.8125 C482.6736569969899 1081.234543628183 482.92047499732666 1073.6167280338236 483 1066 C483.33 1066 483.66 1066 484 1066 C484.2374383317088 1055.3152750731037 483.89903308774944 1044.8581615923974 482.71142578125 1034.22998046875 C481.889073508003 1026.4682063389055 481.9055074288193 1018.7976057176419 482 1011 C482.1660473632812 1012.0119946289062 482.3320947265625 1013.0239892578124 482.503173828125 1014.066650390625 C483.13239771032823 1017.8971615826945 483.7650728536346 1021.7270966623776 484.398681640625 1025.556884765625 C484.6701003902182 1027.200289265374 484.94063872832544 1028.8438394649825 485.210205078125 1030.487548828125 C486.94110538476053 1041.037337847898 488.8220788870467 1051.5324948931948 491 1062 C491.99 1062 492.98 1062 494 1062 C494 1043.52 494 1025.04 494 1006 C495.3124999999985 1019.2499999999844 495.3124999999985 1019.2499999999844 495.704345703125 1023.3486328125 C496.862124101655 1034.559256629133 498.95992579373984 1044.8686833214263 504 1055 C504.66 1055 505.32 1055 506 1055 C505.4706933241987 1040.2783891226318 504.47173791098527 1025.6573956142083 503 1011 C503.66 1011 504.32 1011 505 1011 C505.04535888671876 1011.5993334960938 505.0907177734375 1012.1986669921876 505.137451171875 1012.816162109375 C505.6909250822427 1019.2229480124777 506.84777202660524 1025.308623850338 508.3125 1031.5625 C511.1210319537868 1043.9535660970992 513.1264350511765 1056.4380568952924 515 1069 C515.6600000000001 1068.3400000000001 516.3199999999999 1067.6799999999998 517 1067 C516.7472384907335 1063.9422022293606 516.3676007836291 1061.0216886526252 515.875 1058 C515.7353784179688 1057.0759033203126 515.5957568359374 1056.151806640625 515.451904296875 1055.19970703125 C514.6532329660758 1049.9550260851297 513.7871283555883 1044.7229405427292 512.90234375 1039.4921875 C510.7461837562508 1026.5188123909434 509.42948228186714 1014.1536029458406 510 1001 C510.121171875 1002.03640625 510.24234375 1003.0728125 510.3671875 1004.140625 C510.53607180663107 1005.5104643760075 510.70536411110555 1006.8802534941509 510.875 1008.25 C510.9536328125 1008.9319140625 511.032265625 1009.613828125 511.11328125 1010.31640625 C511.56645832920645 1013.9069631083281 512.0938573844023 1016.8925069964205 514 1020 C514 1019.34 514 1018.68 514 1018 C514.6600000000001 1018 515.3199999999999 1018 516 1018 C517.2860566095769 1015.427886780846 517.2104394084695 1013.4309303415445 517.31640625 1010.5546875 C517.35830078125 1009.4783203125 517.4001953125 1008.401953125 517.443359375 1007.29296875 C517.502333984375 1005.60107421875 517.502333984375 1005.60107421875 517.5625 1003.875 C517.60568359375 1002.7393359375 517.6488671875 1001.603671875 517.693359375 1000.43359375 C517.7996594473785 997.6225473915449 517.9003539709574 994.8112900959643 518 992 C518.99 996.29 519.98 1000.58 521 1005 C521.6600000000001 1005 522.3199999999999 1005 523 1005 C524.485 992.625 524.485 992.625 526 980 C526.6600000000001 981.98 527.3199999999999 983.96 528 986 C530.4989047681281 983.5010952318719 530.5171263756076 982.0134776400627 531.0625 978.5625 C531.5455630116031 975.5643155230251 532.0378206060053 972.886538181984 533 970 C533.966796875 969.53787109375 533.966796875 969.53787109375 534.953125 969.06640625 C537.5701779012586 967.7029416659474 537.8699235794444 966.7097407247503 538.75 963.9375 C538.9923437499999 963.2246484375 539.2346875000001 962.511796875 539.484375 961.77734375 C540.9920987574037 953.6561953294394 539.7175682739146 945.0424469896581 539.0625 936.875 C538.97548828125 935.7341796875 538.8884765625 934.593359375 538.798828125 933.41796875 C538.4593445834588 929.0876675756742 538.1154219640512 924.7912131581525 537.48828125 920.4921875 C536.7344755841441 915.1009693777979 536.4753771210724 909.6802856687605 536.125 904.25 C534.1621567182217 875.8378898334469 531.6057135773585 846.8720694777816 523.224609375 819.533203125 C521.6377175349596 814.352586761713 520.354447549837 809.1967154982603 519.2587890625 803.890625 C517.493906963867 795.3467855071302 515.1762805274061 787.586271033269 511.75 779.5625 C506.6722258428316 767.5358572536118 504.0259994359786 755.1067866529133 501.244140625 742.404541015625 C499.2471146886698 733.3042808471786 497.06385153064747 724.3904992147709 494.25 715.5 C491.5251846590881 706.6709460170509 489.6881677322794 697.7953119811723 488.1875 688.6875 C487.992529296875 687.52734375 487.79755859375 686.3671875 487.5966796875 685.171875 C484.0610619711349 662.1997133296488 483.70808035776264 639.0559628077178 483.8626708984375 615.8687744140625 C483.8836632725059 612.3676205409707 483.8923748813315 608.8664339059246 483.90234375 605.365234375 C483.92337036632125 598.5767480297363 483.9571906818293 591.7883832751388 484 585 C484.9113042449951 585.0140034484864 484.9113042449951 585.0140034484864 485.8410186767578 585.0282897949219 C491.8971224693388 585.0806896153271 497.8297433215691 584.7766324468926 503.85546875 584.1953125 C504.7601741027832 584.1112716674804 505.6648794555664 584.027230834961 506.5970001220703 583.9406433105469 C508.49887564073674 583.7629365896216 510.4005428115381 583.5829868413888 512.302001953125 583.40087890625 C515.1624161071609 583.1273982400295 518.0234901417789 582.8619557140904 520.884765625 582.59765625 C528.8519753357843 581.8519546886893 536.7972733541387 581.071527656233 544.72265625 579.9609375 C553.9844438660334 578.66965804212 563.2919649300466 578.0218526302465 572.61328125 577.32275390625 C581.526538085156 576.6483470354308 590.2326346677004 575.8202333998695 599 574 C600.3741358215862 573.7465707246822 601.7490976685317 573.4975626228174 603.125 573.25390625 C605.1268364592864 572.8967237365991 607.128623703461 572.5392465802639 609.129638671875 572.177490234375 C613.1365752833435 571.4641790442452 617.1426376241283 570.8287287543603 621.17578125 570.28125 C622.03236328125 570.1606420898438 622.8889453125 570.0400341796875 623.771484375 569.915771484375 C625.431044618472 569.6850466888039 627.0925499670618 569.4677996892506 628.755859375 569.265869140625 C632.5051789027385 568.7357791776075 634.5261751337487 568.3792054613164 637.54296875 565.96484375 C639.0992745933268 564.2738139833752 639.0992745933268 564.2738139833752 639 563 C629.9762898129283 562.8730441035956 621.0302486867782 563.260753697643 612.02734375 563.83984375 C610.5866733621582 563.9299815573154 609.1459942149346 564.0199794565845 607.7053070068359 564.1098480224609 C591.7531585354151 565.1139542686809 575.8098707647582 566.2479282166677 559.8676147460938 567.3968505859375 C556.7425613513362 567.6214221673015 553.6173369019381 567.8435635258264 550.492112159729 568.0657358169556 C547.433511652416 568.2834500302537 544.3750120851024 568.502556210705 541.3165416717529 568.722089767456 C539.8818435673302 568.8249333711072 538.44711769726 568.9273905234362 537.0123615264893 569.0294208526611 C530.0460192662775 569.525637867578 523.0965375874357 570.0719388838721 516.1503143310547 570.7967071533203 C512.9960942357964 571.0949102452863 509.84574942014893 571.216575468734 506.6796875 571.31640625 C505.403515625 571.35830078125 504.12734375 571.4001953125 502.8125 571.443359375 C501.513125 571.48267578125 500.21375 571.5219921875 498.875 571.5625 C497.52342757943086 571.6058113101647 496.1718649413283 571.6494290213609 494.8203125 571.693359375 C491.5469580604851 571.7985743391273 488.2735387538238 571.9007147891126 485 572 C485 571.34 485 570.68 485 570 C485.69742309570313 569.994909210205 486.39484619140626 569.9898184204102 487.1134033203125 569.9845733642578 C516.8623994461768 569.656126922054 546.4816203337814 567.1075519202361 576.1178216934204 564.7003194093704 C581.8539181242386 564.2360595574097 587.5915150030663 563.7928619467605 593.3295750617981 563.3536388278008 C598.9220147107119 562.9246093710374 604.513176375383 562.4810348952706 610.10356092453 562.0260131955147 C613.4179949194306 561.7564999560068 616.7327192413779 561.4947170674516 620.0486602783203 561.2443141937256 C623.707984551087 560.966195975431 627.3645840394906 560.6643471504768 631.021484375 560.356201171875 C632.1110191345215 560.2786459350586 633.200553894043 560.2010906982422 634.3231048583984 560.1211853027344 C635.8059371185302 559.9888927459717 635.8059371185302 559.9888927459717 637.3187255859375 559.8539276123047 C638.1797664642334 559.7851701641082 639.0408073425293 559.7164127159119 639.9279403686523 559.6455717086792 C642.1933871691207 559.1858267495152 642.1933871691207 559.1858267495152 643.2925796508789 556.946629524231 C643.6427527236939 555.9830479097366 643.6427527236939 555.9830479097366 644 555 C629.459459149773 554.495865678387 615.0338699767142 555.9986560069441 600.5625 557.25 C598.5425483548837 557.4215496912179 596.5225159504838 557.5921272540087 594.5024824142456 557.7627096176147 C577.9590879602105 559.161856436767 561.4357050545301 560.7143074977919 544.9228210449219 562.436767578125 C533.5021680200033 563.6224691821716 522.0868522861451 564.5645558392607 510.625 565.25 C509.94386138916013 565.2911996459961 509.2627227783203 565.3323992919921 508.5609436035156 565.3748474121094 C501.03439059798274 565.8215521257637 493.5401269512182 566.1188114547318 486 566 C486 565.67 486 565.34 486 565 C487.95160034179685 564.8951025390625 487.95160034179685 564.8951025390625 489.942626953125 564.7880859375 C511.9328404245091 563.5914635283414 533.8757470837604 562.3969184578328 555.7371520996094 559.6744689941406 C567.148636610951 558.2551037171147 578.5032451175548 557.3656180552604 589.984619140625 556.720703125 C599.0813147472184 556.188064169863 608.0555734431244 555.2236885641291 617.088134765625 554.04150390625 C627.3682017451794 552.7369825609007 637.6480840436598 552.2981187316126 648 552 C648.5907001394316 550.0539672576753 648.5907001394316 550.0539672576753 649 548 C647.95432165397 546.7255661079002 647.95432165397 546.7255661079002 645.6142578125 546.9306640625 C642.1588865212245 547.0235331704212 638.7045306504436 547.1296203680415 635.25 547.25 C634.0756640625 547.2770703125 632.901328125 547.304140625 631.69140625 547.33203125 C624.5473904981715 547.5756665506674 618.0813056506722 548.5535912906697 611.158203125 550.2958984375 C606.0170953448991 551.4420761460506 600.872895216744 551.7092269032811 595.625 552 C593.2589080882491 552.1530912552789 590.8930275701504 552.309476868636 588.52734375 552.46875 C587.3012841796875 552.55125 586.075224609375 552.63375 584.81201171875 552.71875 C578.2599134684052 553.2021634228511 571.72499482529 553.8515505378427 565.1875 554.5 C563.849465157733 554.6309675800579 562.5114118011927 554.7617461486014 561.17333984375 554.892333984375 C555.6668932797238 555.432161550673 550.161835636512 555.9799436185494 544.66015625 556.56640625 C524.8438915678703 558.6065749881463 504.8955932632995 559.1603298269933 485 560 C485.33 559.3399999999999 485.66 558.6800000000001 486 558 C487.0890161132813 557.9551245117187 488.1780322265625 557.9102490234375 489.300048828125 557.864013671875 C511.5774061877979 556.9327078853615 533.781338807077 555.7340150854274 555.9815826416016 553.6477203369141 C561.1577698481856 553.1627412432889 566.3361901250439 552.7116559392498 571.5166931152344 552.2752380371094 C575.4933223329729 551.9395979532733 579.4692526476412 551.5960743370817 583.4451293945313 551.2516479492188 C585.3696462201659 551.0863503038197 587.2944073079375 550.923867716642 589.2194213867188 550.7644653320313 C599.7222264264713 549.8907912982975 609.8089333664093 548.8184558562592 620 546 C619.67 545.3399999999999 619.34 544.6800000000001 619 544 C605.1023099931176 544.5703494769391 591.3008174838357 545.7381293447568 577.4598693847656 547.0985107421875 C571.5720539419248 547.6753840183562 565.6824988693165 548.2339164491609 559.79296875 548.79296875 C558.6549028015137 548.9010989379883 557.5168368530274 549.0092291259766 556.3442840576172 549.1206359863281 C532.8956575333007 551.3417659821453 509.5405627013355 552.474931686959 486 553 C485.67 552.01 485.34 551.02 485 550 C486.3417932128906 550.0314208984375 486.3417932128906 550.0314208984375 487.710693359375 550.0634765625 C518.6087943005501 550.6779771539414 549.0260700385022 548.1966405554335 579.7624816894531 545.2615203857422 C582.8596060457187 544.9669549123672 585.9573264731993 544.6789233809355 589.0550537109375 544.3907775878906 C591.0955154462315 544.1962685201306 593.1340575569662 543.9872906745165 595.1728515625 543.776123046875 C602.4021901484688 543.0847645263002 609.205115022736 543.0868130110119 616.435791015625 543.731201171875 C622.7433992464654 544.2068965388286 629.0532045678402 544.1043448781152 635.375 544.0625 C636.7083316122025 544.0574642690085 638.0416651114834 544.0529051030104 639.375 544.048828125 C642.5833836096997 544.037203546704 645.7916655050554 544.0208666942337 649 544 C649.5907001394319 542.0539672576754 649.5907001394319 542.0539672576754 650 540 C648.0734616123215 538.0734616123215 644.5055602712749 538.7419808024981 641.87890625 538.69140625 C641.1046228027344 538.6763705444337 640.3303393554687 538.6613348388671 639.5325927734375 538.6458435058594 C636.8758650658992 538.6049315266011 634.2194795048114 538.5806563714805 631.5625 538.5625 C630.638151550293 538.5556619262695 629.7138031005859 538.548823852539 628.7614440917969 538.5417785644531 C599.2935812365034 538.4372176823027 569.8974788222595 541.5270831112628 540.5748405456543 544.1563854217529 C517.8612183981875 546.1883993160768 517.8612183981875 546.1883993160768 511.2890625 545.9140625 C509.63970703125 545.8483203124999 509.63970703125 545.8483203124999 507.95703125 545.78125 C506.8574609375 545.7296875 505.757890625 545.678125 504.625 545.625 C502.94083984375004 545.5592578124999 502.94083984375004 545.5592578124999 501.22265625 545.4921875 C489.7561898031827 545.0048288316583 489.7561898031827 545.0048288316583 485 544 C484.67 543.3399999999999 484.34 542.6800000000001 484 542 C485.2088586425781 541.9029577636719 485.2088586425781 541.9029577636719 486.442138671875 541.803955078125 C501.7273094284578 540.5531842744853 516.9235603128699 539.098786350425 532.1010437011719 536.88427734375 C554.7363564051554 533.5907323613336 577.476178174052 532.0037947589628 600.2841796875 530.40673828125 C605.111006770139 530.06700184489 609.9348717447294 529.6993378902163 614.7578125 529.30859375 C626.201427280731 528.3892963762667 637.5149775089435 527.683414387689 649 528 C649 526.6800000000001 649 525.36 649 524 C640.1489816940565 518.9289862453946 626.5036182161232 522.614331034473 616.7401428222656 523.5941772460938 C603.1115802086298 524.9597492178555 589.5189949967249 526.1684242545707 575.8354187011719 526.7832641601563 C560.7857250165023 527.4657415571739 546.1172530368331 529.451423504539 531.244873046875 531.814453125 C515.2109903158678 534.354802204102 499.2573450351585 536.195036130787 483 536 C482.67 535.3399999999999 482.34 534.6800000000001 482 534 C482.55421630859377 533.9906542968749 483.1084326171875 533.98130859375 483.679443359375 533.9716796875 C496.9173138912057 533.6981533440894 509.98834291665037 532.714013749747 523.125 531.125 C523.811979675293 531.0439099121094 524.4989593505859 530.9628198242187 525.2067565917969 530.8792724609375 C532.3122081264935 530.0322860803732 539.3162242430798 528.9955751287628 546.3046875 527.4296875 C554.510297010776 525.5915425244971 562.576411214791 524.9880740815415 570.960693359375 524.759765625 C585.5197685397054 524.3454317865828 599.9802579583171 522.8778334224381 614.46875 521.459716796875 C624.9736542497069 520.4359382709895 635.4595317689514 519.566982631556 646 519 C645.6521329170433 517.0246325508965 645.6521329170433 517.0246325508965 645 515 C638.7473668995614 511.8736834497807 628.875431240439 514.2907097212164 622.140625 515.0234375 C620.0493234474077 515.2409531244504 617.9580145748345 515.4583983800205 615.86669921875 515.67578125 C614.2458340454102 515.8471459960938 614.2458340454102 515.8471459960938 612.5922241210938 516.02197265625 C597.3641424726478 517.6304612015962 582.1681709473526 519.1884694813464 566.875 520 C555.6725722275655 520.6150992897401 544.7770271980876 522.2168048727347 533.72998046875 524.102294921875 C516.2920608239256 526.9954731954342 498.62523281527615 527.9079427507202 481 529 C480.67 527.6800000000001 480.34 526.36 480 525 C481.570078125 525.0348046875 481.570078125 525.0348046875 483.171875 525.0703125 C501.36770707546543 525.341892083216 519.7498857058125 524.6177713513301 537.625 521.0625 C549.3544198968023 518.7513052239995 561.1397870367241 518.0869758167034 573.0465698242188 517.3250427246094 C587.0355198922798 516.4258667532266 600.9092654402757 515.1346527623912 614.813720703125 513.357421875 C623.2086087235161 512.2907297820464 631.5530512177238 511.5109963217728 640 511 C639.1490627028763 508.82000581229283 639.1490627028763 508.82000581229283 636.8916015625 507.85888671875 C633.2920322937946 506.78971374616424 630.4773598494841 506.9670906406374 626.734375 507.2578125 C626.0346356201172 507.3105130004883 625.3348962402343 507.36321350097654 624.6139526367188 507.4175109863281 C617.5456100188404 507.9768443437248 610.50350728347 508.77885342246833 603.4632568359375 509.6133117675781 C593.0615394823438 510.8431767268615 582.6606362841051 511.9928241208618 572.21875 512.82421875 C571.4208001708985 512.887886352539 570.622850341797 512.9515539550781 569.8007202148438 513.0171508789063 C565.9947129248317 513.3170039913343 562.1881524389667 513.6030333705967 558.3798828125 513.87255859375 C550.720301527321 514.4397675766259 543.3198613096355 515.4113838205974 535.7886352539063 516.9224700927734 C529.3773512776779 518.1845287976827 523.0142097356095 518.7350582287597 516.5 519.125 C515.318896484375 519.2028271484376 514.13779296875 519.280654296875 512.9208984375 519.36083984375 C501.28973465349975 520.1019652945873 489.64752916314444 520.6022637181936 478 521 C477.86134521484377 520.2456567382812 477.7226904296875 519.4913134765625 477.579833984375 518.714111328125 C474.2721021807036 503.2311410285819 463.8232767345761 487.34779483683826 453.0078125 476.11328125 C451.00000000000006 474.00000000000006 451.00000000000006 474.00000000000006 449.21875 471.55859375 C446.3349608362415 468.2330974432011 443.0616755672 466.1089073552582 439.375 463.75 C438.694375 463.303984375 438.01375 462.85796875 437.3125 462.3984375 C433.73874893227435 460.0582410931605 433.73874893227435 460.0582410931605 430 458 C431.0273828125 457.6596875 432.054765625 457.319375 433.11328125 456.96875 C442.2209905442835 453.83142965970336 449.502755744063 450.191347900315 457 444 C460.3278830043292 441.3264472945251 463.6609345503044 438.6595735934778 467 436 C467.8005078125 435.3438671875 468.601015625 434.687734375 469.42578125 434.01171875 C474.941991980609 429.7623889527366 479.3121633247262 428.20003909777375 486.21484375 427.3984375 C489.89230514068356 426.872349054208 492.694706934228 425.65264653288597 496 424 C496 424.99 496 425.98 496 427 C495.34 427 494.68 427 494 427 C490.9748209051573 430.055584229482 490.9748209051573 430.055584229482 490 434 C494.35970830721595 432.65150163470497 498.3134143753668 430.9509215414792 502.375 428.875 C503.434609375 428.336171875 504.49421875 427.79734375 505.5859375 427.2421875 C506.382578125 426.832265625 507.17921875 426.42234375 508 426 C508.33 426.33 508.66 426.66 509 427 C507.78763671875 427.8701171875 507.78763671875 427.8701171875 506.55078125 428.7578125 C501.09401681505494 432.72783840284137 495.9764678445163 436.4613483594237 492 442 C501.6235522921884 440.225444258178 510.9124990804621 432.23777126481883 519 427 C519.3299999999999 427.33 519.6600000000001 427.66 520 428 C518.553671875 428.99580078124995 518.553671875 428.99580078124995 517.078125 430.01171875 C515.801813594517 430.9032598053007 514.5257869108882 431.79520855934896 513.25 432.6875 C512.298671875 433.340087890625 512.298671875 433.340087890625 511.328125 434.005859375 C507.57139546733 436.6473098276586 504.7011427617798 439.21430749296013 502 443 C507.6412532347342 441.63577536153485 512.1606169276806 439.4186705054863 517.1875 436.5625 C523.239792276501 433.21987476295106 528.7584788258341 431.0214146981903 535.55859375 429.578125 C543.9872261597632 427.5822248453681 548.9782535414442 419.7493716808954 553.38525390625 412.82275390625 C556.5178327699173 407.7425326833419 559.5455757534535 402.60159746537363 562.56005859375 397.45068359375 C564.2309562414621 394.6069279837578 565.9320182922113 391.78248337681237 567.6396484375 388.960693359375 C575.4815010502646 375.99611776672407 582.8204640719288 362.77100225781066 590 349.4296875 C591 347.578125 592 345.7265625 593 343.875 C593.7425000000001 342.48861328124997 593.7425000000001 342.48861328124997 594.5 341.07421875 C597.3073898056637 335.89078288485547 600.2954299451035 330.9506411811223 603.611328125 326.078125 C610.1690763213314 316.2645608918472 614.6433714604951 305.6029216142478 618.6875 294.5625 C623.4454833109488 281.63212566532314 629.7173732475259 269.84853264807407 636.4345703125 257.8466796875 C638.5752273614228 253.9539689591095 640.5551804743451 249.9932465640034 642.5 246 C644.9441976320959 241.00662755419694 647.6019690144367 236.23521807267025 650.52734375 231.5078125 C652.8655468726024 227.52604484824732 654.8244036287833 223.36340659047366 656.85546875 219.21875 C660.0622325496302 212.80204581450923 663.5966359756147 206.55277467374174 667.08837890625 200.2880859375 C667.5941748046876 199.373173828125 668.099970703125 198.45826171875 668.62109375 197.515625 C669.3083654785156 196.2824755859375 669.3083654785156 196.2824755859375 670.009521484375 195.0244140625 C671.1464946867284 193.07620491011733 671.1464946867284 193.07620491011733 671 191 C681.4686422698506 196.24672473951048 690.7768312159926 201.7551736326806 700 209 C707.339449072887 214.36434255486483 714.5490886237537 219.18136392203078 724 218 C729.69096525098 216.26654506723025 732.9118053205628 213.5181360674726 735.9921875 208.48828125 C738.9760725065375 201.12109229975027 739.2447774512631 193.92252464082864 739.0625 186.0625 C739.0281610590631 184.19929450101458 738.997998871304 182.33600582693387 738.97265625 180.47265625 C738.9546899414063 179.66062744140623 738.9367236328125 178.8485986328125 738.918212890625 178.011962890625 C739 175.99999999999997 739 175.99999999999997 740 174 C745.6389003017864 173.60238523513044 749.3943717200995 174.75219042096407 754.25 177.4375 C761.2714822716481 181.17784656875767 767.1732103926088 183.65725718905875 775.15625 181.38671875 C782.0606040078832 178.37270267348177 786.0904621614661 172.80170955545572 788.875 165.9375 C792.7001621638152 152.6296004959484 789.4161062199154 139.37819217621234 783.3125 127.375 C776.3758705625163 115.40931422034056 764.4028959232944 99.9747685769345 751 95 C744.6684276940124 93.4716894433823 738.1574471395181 94.03701925995009 731.69921875 94.302734375 C725.9150231001756 94.41444630815111 722.4705739732581 94.05516665715884 718 90 C716.2402829136623 87.81000726245748 714.671735749464 85.70029823845746 713.125 83.375 C712.2530293739396 82.11859113464408 711.3793167233662 80.86338955843937 710.50390625 79.609375 C710.0786767578124 78.99513671875 709.653447265625 78.38089843750001 709.21533203125 77.748046875 C700.1456081573224 64.70280321543363 689.4858400169953 56.10881965275047 673.75 52.75 C662.0814196535107 50.97798063506037 650.4394278360433 52.13709730909832 638.8125 53.6875 Z M289 422 C289.6593506267145 425.0251487735617 289.6593506267145 425.0251487735617 291.64794921875 426.0556640625 C292.71553466796877 426.5308447265625 292.71553466796877 426.5308447265625 293.8046875 427.015625 C294.6072094726562 427.3767236328125 295.4097314453125 427.737822265625 296.236572265625 428.10986328125 C297.10725341796876 428.4861083984375 297.9779345703125 428.862353515625 298.875 429.25 C299.76308349609377 429.6404248046875 300.6511669921875 430.030849609375 301.566162109375 430.43310546875 C307.8377986456395 433.1534534199552 314.1661966794204 435.7128505866349 320.5625 438.125 C321.36478027343753 438.432119140625 322.167060546875 438.73923828125 322.99365234375 439.0556640625 C327.429719922516 440.78711008519014 327.429719922516 440.78711008519014 332 440 C318.306105794412 430.69490393734316 305.81764655735304 423.26974527166453 289 422 Z M283 428 C289.5453340560243 435.3635008130273 298.326780638789 437.9820678511606 307.4375 441.0625 C308.915732421875 441.570068359375 308.915732421875 441.570068359375 310.423828125 442.087890625 C316.27163151618157 444.0914123965314 322.1333237577357 446.05253043043757 328 448 C318.5920339812451 436.57604126294046 297.3123894623528 430.07760492195445 283 428 Z M523.9375 436.4375 C522.8306384277344 436.96851318359376 522.8306384277344 436.96851318359376 521.701416015625 437.51025390625 C514.7087048285144 440.9655113913509 507.99091937529977 444.9780467149661 502 450 C502 450.66 502 451.32 502 452 C508.60026180510886 450.03976073800715 514.5126396728515 447.39280776794885 520.5625 444.125 C521.36107421875 443.7034765625 522.1596484375 443.281953125 522.982421875 442.84765625 C530.6854561899714 438.7455090292809 530.6854561899714 438.7455090292809 538 434 C538 433.67 538 433.34 538 433 C532.4553775615724 432.5227633268959 528.7953580297242 434.0646083291562 523.9375 436.4375 Z M280 435 C285.87601129128933 441.22165901430634 291.84134491145767 444.5513716749027 299.75 447.4375 C305.8017656859284 449.7019999847508 311.58842956448206 452.1046830913789 317.25 455.25 C317.8275 455.4975 318.405 455.745 319 456 C319.65999999999997 455.67 320.32 455.34 321 455 C319.6774086162415 453.7386396988229 318.3412196394774 452.49153439600275 317 451.25 C316.2575 450.55390625 315.515 449.8578125 314.75 449.140625 C308.20144338756126 444.0431690005449 300.36664379263425 441.51853486624003 292.625 438.75 C291.6285546875 438.386484375 290.632109375 438.02296875 289.60546875 437.6484375 C284.9163242808838 435.7523199918534 284.9163242808838 435.7523199918534 280 435 Z M529.625 442.875 C528.8870922851562 443.1780102539062 528.1491845703125 443.4810205078125 527.388916015625 443.793212890625 C518.0310589316671 447.718857797008 509.0164252759609 452.354748942003 500 457 C500 457.66 500 458.32 500 459 C504.8555930378548 458.47216023642096 508.7370812244333 457.4761687797669 513.16015625 455.41796875 C514.28357421875 454.89783203125 515.4069921875 454.3776953125 516.564453125 453.841796875 C518.295986328125 453.022919921875 518.295986328125 453.022919921875 520.0625 452.1875 C521.22072265625 451.65318359375 522.3789453125 451.1188671875 523.572265625 450.568359375 C531.6400496174929 446.8804781570522 531.6400496174929 446.8804781570522 539 442 C539 441.34 539 440.68 539 440 C535.6495266247857 440 532.6858117294864 441.61434131155175 529.625 442.875 Z M278 444 C279.6808402837103 449.04252085113103 284.4542386961276 450.6297919649834 289 453 C292.57820434657583 454.6066991317596 296.16734726585213 456.12849614502164 299.80078125 457.60546875 C303 459 303 459 305.7421875 460.6640625 C308.3736017866872 462.22105849662114 309.99402944053446 462.2576546193828 313 462 C306.10601934795585 454.67514555720305 299.2182599199656 450.22414417385085 289.625 447.125 C288.7239453125 446.818203125 287.822890625 446.51140625 286.89453125 446.1953125 C282.5382759108921 444.59869170628707 282.5382759108921 444.59869170628707 278 444 Z M539.265625 446.125 C538.3048706054688 446.58068359375 537.3441162109375 447.0363671875 536.354248046875 447.505859375 C535.3298461914062 447.99892578125 534.3054443359375 448.4919921875 533.25 449 C532.2133520507813 449.49822265625 531.1767041015624 449.9964453125 530.108642578125 450.509765625 C516.0808319905536 456.4180441491589 516.0808319905536 456.4180441491589 505 466 C510.23301181066205 465.4194627522547 514.3252373650989 463.7041324825991 519 461.4375 C519.7382299804688 461.08324951171875 520.4764599609375 460.7289990234375 521.237060546875 460.364013671875 C535.1208770169696 454.11057804850833 535.1208770169696 454.11057804850833 546 444 C543.3250520897305 444 541.685283094284 444.97699362330127 539.265625 446.125 Z M549 451 C525.5658146594544 459.23548850366274 525.5658146594544 459.23548850366274 507 474 C510.84492145384115 473.3909679095099 513.8827346215539 472.2405218786568 517.3515625 470.48828125 C518.3686328125 469.97716796875 519.385703125 469.4660546875 520.43359375 468.939453125 C521.4867578125 468.40255859375 522.539921875 467.8656640625 523.625 467.3125 C525.16994140625 466.536162109375 525.16994140625 466.536162109375 526.74609375 465.744140625 C538.6358003720567 459.83279427886663 538.6358003720567 459.83279427886663 550 453 C549.505 452.01 549.505 452.01 549 451 Z M277 455 C284.10820794184207 465.66231191276313 297.8544623631761 471.4792280376403 310 474 C306.5309426743451 469.9860645603679 302.5292426531303 467.97169833324557 297.875 465.625 C292.03460096487794 462.61861025693395 286.34034060392395 459.51215382992785 280.78515625 455.99609375 C279.04962464559793 454.8375784976368 279.04962464559793 454.8375784976368 277 455 Z M288 455 C291.079999460958 458.6723070496037 293.2482601996987 459.5680236545181 298 460 C294.87450409778245 457.3553496212005 291.9121173312092 456.15585284785726 288 455 Z M548 460 C545.7178353740428 460.78846608683614 545.7178353740428 460.78846608683614 543.16015625 462.0625 C542.1839331054688 462.5265625 541.2077099609374 462.990625 540.201904296875 463.46875 C539.1659008789062 463.9740625 538.1298974609375 464.479375 537.0625 465 C536.0181176757812 465.5053125 534.9737353515625 466.010625 533.897705078125 466.53125 C521.5661439413303 472.0195556142502 521.5661439413303 472.0195556142502 512 481 C517.8812666327591 479.57090717334825 522.8645819757771 477.22711869549795 528.1875 474.375 C529.4323718261719 473.71491943359376 529.4323718261719 473.71491943359376 530.702392578125 473.04150390625 C537.4271943773896 469.423016394974 543.7828984072908 465.44255962113755 550 461 C549.34 460.67 548.68 460.34 548 460 Z M275 464 C275 464.66 275 465.32 275 466 C280.44951696900074 470.5338194455211 286.53382100364144 474.1375468640459 293 477 C294.0093359375 477.4576171875 295.018671875 477.915234375 296.05859375 478.38671875 C301.88003100497974 481.4074227905335 301.88003100497974 481.4074227905335 308 481 C297.0632776825216 475.20181789232174 286.10470121035553 469.4708315913986 275 464 Z M529.625 478.5 C528.8399609375 478.96253173828126 528.054921875 479.4250634765625 527.24609375 479.901611328125 C522.999150040975 482.4833108655282 519.8420568440758 484.80530647612335 517 489 C522.2005086690747 488.4383450637399 526.2786746440908 485.9009665228005 530.75 483.375 C531.55115234375 482.92568115234377 532.3523046875 482.4763623046875 533.177734375 482.013427734375 C543.2538549268875 476.3489168783353 543.2538549268875 476.3489168783353 551 468 C543.8572520521866 468 535.6175324352333 474.90916971953766 529.625 478.5 Z M276 475 C282.1657907369592 481.55115265801913 289.2427006153831 487.36554271624595 298 490 C298.66 489.67 299.32 489.34 300 489 C298.9983984375 488.4083203125 297.996796875 487.816640625 296.96484375 487.20703125 C295.6222998400275 486.4090156391772 294.27985734660723 485.6108293927513 292.9375 484.8125 C292.28072265625 484.42513671875 291.6239453125 484.0377734375 290.947265625 483.638671875 C287.56180289500435 481.6207359620469 284.3057726249254 479.5343020201357 281.12890625 477.19921875 C278.36470376225213 474.8083206960392 278.36470376225213 474.8083206960392 276 475 Z M550 477 C548.0681682788806 477.7867062856355 548.0681682788806 477.7867062856355 545.96484375 479.0625 C544.7559851074219 479.75895629882814 544.7559851074219 479.75895629882814 543.522705078125 480.469482421875 C542.6695874023437 480.97455322265625 541.8164697265624 481.4796240234375 540.9375 482 C540.0772924804687 482.5031372070313 539.2170849609375 483.0062744140625 538.330810546875 483.524658203125 C532.552749344706 486.9518012503552 527.0557714256968 490.55152844525776 522 495 C524.8043739902248 496.28952779466 524.8043739902248 496.28952779466 526.742431640625 495.322509765625 C527.3752807617187 494.9492456054688 528.0081298828125 494.5759814453125 528.66015625 494.19140625 C529.3672875976563 493.7774560546875 530.0744189453125 493.363505859375 530.802978515625 492.93701171875 C531.5486206054687 492.4834228515625 532.2942626953125 492.029833984375 533.0625 491.5625 C533.8216772460937 491.1089111328125 534.5808544921875 490.655322265625 535.363037109375 490.18798828125 C541.3152527656474 486.5671046168254 546.7623416897519 482.6070802827244 552 478 C551.34 477.67 550.68 477.34 550 477 Z M542.3046875 491.40625 C541.5892578125 491.9025390625 540.873828125 492.398828125 540.13671875 492.91015625 C539.3903515625 493.4348046875 538.643984375 493.959453125 537.875 494.5 C536.74384765625 495.28697265625 536.74384765625 495.28697265625 535.58984375 496.08984375 C533.7236283472379 497.3891076379989 531.8605398934442 498.6926277609098 530 500 C530.99 500.33 531.98 500.66 533 501 C535.320739133974 499.6637272757245 537.4042738477008 498.3122803170659 539.5625 496.75 C540.15224609375 496.3413671875 540.7419921875 495.932734375 541.349609375 495.51171875 C544.1818973081615 493.5075286539517 546.0560758875002 491.91588616874964 548 489 C545.3815717157663 489 544.4424018176434 489.9132431749792 542.3046875 491.40625 Z M301 526 C301 526.33 301 526.66 301 527 C305.62 527 310.24 527 315 527 C315 526.67 315 526.34 315 526 C310.38 526 305.76 526 301 526 Z M590.3820419311523 533.0785903930664 C588.2119900767159 533.2530558808036 586.0416408635127 533.4232514190403 583.8711547851563 533.5922241210938 C564.2851780466951 535.1192884065541 544.7583007134486 536.8450737909607 525.29443359375 539.5546875 C521.8212516175594 540.0241616310635 518.3447193534879 540.4402704985981 514.86328125 540.84375 C513.7322900390625 540.9763623046875 512.601298828125 541.108974609375 511.43603515625 541.24560546875 C509.35677211349525 541.4884413900216 507.27705221689405 541.7274160853159 505.19677734375 541.96142578125 C504.3003955078125 542.0695458984375 503.404013671875 542.177666015625 502.48046875 542.2890625 C501.70598388671874 542.3788134765625 500.9314990234375 542.468564453125 500.133544921875 542.56103515625 C497.8280317308705 543.0353815022194 496.05036506320846 543.8608759606249 494 545 C507.8446886038463 545.4122948761475 521.4846155561772 544.274847874558 535.2666320800781 543.0340576171875 C539.2030475894737 542.6804897855268 543.1402650568176 542.3369342761708 547.077880859375 541.9970703125 C552.3257522211202 541.5434804622971 557.5734083292097 541.0875202873342 562.82080078125 540.62841796875 C564.0448663330078 540.5213250732422 565.2689318847656 540.4142321777343 566.5300903320313 540.3038940429688 C568.7066668761646 540.1132698742956 570.8832242467025 539.9224265153651 573.0597534179688 539.7312622070313 C599.0438133874022 537.453502884151 624.9172605090837 536.356111929385 651 536 C650.67 534.35 650.34 532.7 650 531 C629.999458192651 530.666667133207 610.307351061196 531.4668608223528 590.3820419311523 533.0785903930664 Z M513 1021 C514 1023 514 1023 514 1023 Z M451 1119 C451 1120.98 451 1122.96 451 1125 C451.66 1124.01 452.32 1123.02 453 1122 C452.34 1121.01 451.68 1120.02 451 1119 Z " fill="#000000" transform="translate(0,0)"/>
<path d="M0 0 C-2.9808141485607393 0.993604716186951 -5.385963839425585 1.2815873584835344 -8.50830078125 1.52490234375 C-10.21176666259771 1.660563583374028 -10.21176666259771 1.660563583374028 -11.94964599609375 1.7989654541015625 C-13.185715942382785 1.8936662292480833 -14.42178588867182 1.9883670043944903 -15.6953125 2.0859375 C-17.660940579056273 2.2414850881158372 -19.626568440869733 2.397035458948494 -21.592185974121094 2.5527162551879883 C-23.6756712584596 2.7170684793562714 -25.759288349399185 2.879640539280331 -27.84295654296875 3.041656494140625 C-34.95318526614983 3.5945264398043264 -42.062578864365264 4.157938117326125 -49.171875 4.72265625 C-49.869216270446714 4.777924175262456 -50.56655754089354 4.833192100524911 -51.285030364990234 4.890134811401367 C-59.49175170121691 5.54152413424481 -67.69483655163413 6.21778147550458 -75.890625 6.99609375 C-77.03088638305667 7.104042663574205 -77.03088638305667 7.104042663574205 -78.19418334960938 7.21417236328125 C-81.46564768975611 7.526551532271128 -84.73537617182319 7.849686670763958 -88.00439453125 8.18701171875 C-96.69336816186478 9.038283628180125 -105.28050684621189 9.120497278915309 -114 9 C-114.32999999999998 8.009999999999991 -114.66000000000003 7.019999999999982 -115 6 C-108.12194133223369 4.840090698039376 -101.20640272196266 4.5334813643511325 -94.25 4.125 C-82.56732185240014 3.414571622067797 -70.90904783923565 2.525876708949113 -59.25 1.5 C-56.31774457240408 1.2430743419747614 -53.38545257580745 0.9865696510321413 -50.453125 0.73046875 C-49.741502075195285 0.668316802978552 -49.02987915039057 0.6061648559569903 -48.29669189453125 0.5421295166015625 C-41.20082313317562 -0.0746352085163835 -34.102092450633336 -0.6465397237266188 -27 -1.1875 C-25.40913574218746 -1.3131835937499545 -25.40913574218746 -1.3131835937499545 -23.7861328125 -1.44140625 C-4.8681034555012275 -2.8531086658326785 -4.8681034555012275 -2.8531086658326785 0 0 Z " fill="#000000" transform="translate(599,571)"/>
</svg>
